<?xml version="1.0" encoding="UTF-8" standalone="no"?>
<!-- Created with Inkscape (http://www.inkscape.org/) -->

<svg
   width="475.05383mm"
   height="97.387192mm"
   viewBox="0 0 475.05383 97.38719"
   version="1.1"
   id="svg1"
   xml:space="preserve"
   inkscape:version="1.3 (0e150ed6c4, 2023-07-21)"
   sodipodi:docname="pureScanLogo.svg"
   xmlns:inkscape="http://www.inkscape.org/namespaces/inkscape"
   xmlns:sodipodi="http://sodipodi.sourceforge.net/DTD/sodipodi-0.dtd"
   xmlns="http://www.w3.org/2000/svg"
   xmlns:svg="http://www.w3.org/2000/svg"><sodipodi:namedview
     id="namedview1"
     pagecolor="#ffffff"
     bordercolor="#000000"
     borderopacity="0.25"
     inkscape:showpageshadow="2"
     inkscape:pageopacity="0.0"
     inkscape:pagecheckerboard="0"
     inkscape:deskcolor="#d1d1d1"
     inkscape:document-units="mm"
     inkscape:zoom="0.34119669"
     inkscape:cx="858.74221"
     inkscape:cy="167.05907"
     inkscape:window-width="1920"
     inkscape:window-height="991"
     inkscape:window-x="-9"
     inkscape:window-y="-9"
     inkscape:window-maximized="1"
     inkscape:current-layer="layer1" /><defs
     id="defs1" /><g
     inkscape:label="Capa 1"
     inkscape:groupmode="layer"
     id="layer1"
     transform="translate(46.243938,-146.63761)"><g
       id="g15"><path
         id="path2"
         style="fill:none;fill-rule:evenodd;stroke:#0056c8;stroke-width:7;stroke-linecap:round;stroke-linejoin:round;stroke-dasharray:none;stroke-opacity:1"
         d="m 47.078298,174.17677 v -16.96311 c -0.726051,-2.75363 -1.92462,-6.27343 -8.239231,-7.07605 H 23.329929"
         sodipodi:nodetypes="cccc" /><path
         id="path4"
         style="fill:none;fill-rule:evenodd;stroke:#0056c8;stroke-width:7;stroke-linecap:round;stroke-linejoin:round;stroke-dasharray:none;stroke-opacity:1"
         d="m -42.743938,174.17677 v -16.96311 c 0.726051,-2.75363 1.92462,-6.27343 8.239231,-7.07605 h 15.509138"
         sodipodi:nodetypes="cccc" /><path
         id="path5"
         style="fill:none;fill-rule:evenodd;stroke:#0056c8;stroke-width:7;stroke-linecap:round;stroke-linejoin:round;stroke-dasharray:none;stroke-opacity:1"
         d="m -42.743938,216.48564 v 16.96311 c 0.726051,2.75363 1.92462,6.27343 8.239231,7.07605 h 15.509138"
         sodipodi:nodetypes="cccc" /><path
         id="path6"
         style="fill:none;fill-rule:evenodd;stroke:#0056c8;stroke-width:7;stroke-linecap:round;stroke-linejoin:round;stroke-dasharray:none;stroke-opacity:1"
         d="m 47.078298,216.48564 v 16.96311 c -0.726051,2.75363 -1.92462,6.27343 -8.239231,7.07605 H 23.329929"
         sodipodi:nodetypes="cccc" /><path
         id="rect6"
         style="color:#000000;display:inline;fill:#0057c9;fill-opacity:1;fill-rule:evenodd;stroke-linecap:round;stroke-linejoin:round;-inkscape-stroke:none"
         d="m -22.507681,167.08587 c -1.823931,2.8e-4 -3.302358,1.47871 -3.30264,3.30264 v 50.42999 c 2.82e-4,1.82393 1.478709,3.30236 3.30264,3.30264 h 49.058505 c 1.823931,-2.8e-4 3.302358,-1.47871 3.30264,-3.30264 v -50.42999 c -2.82e-4,-1.82393 -1.478709,-3.30236 -3.30264,-3.30264 z M 2.6525407,193.55298 H 26.705336 c 2.73921,4.9e-4 4.116426,3.30704 2.187463,5.25188 L 4.8400041,223.05092 c -1.9376518,1.95308 -5.26894516,0.5813 -5.26944583,-2.16989 v -24.24606 c -1.5019e-4,-1.70222 1.37976162,-3.08214 3.08198243,-3.08199 z" /></g><g
       id="g16"><path
         style="fill:none;fill-opacity:1;fill-rule:evenodd;stroke:#0057c9;stroke-width:8.6;stroke-linecap:round;stroke-linejoin:round;stroke-dasharray:none;stroke-opacity:1"
         d="M 86.045006,216.8269 V 175.1461 H 107.467 c 13.48128,1.07288 17.92288,20.66367 0,25.49314 H 87.886718"
         id="path8"
         sodipodi:nodetypes="ccccc" /><path
         style="fill:none;fill-opacity:1;fill-rule:evenodd;stroke:#0057c9;stroke-width:8.59999;stroke-linecap:round;stroke-linejoin:round;stroke-dasharray:none;stroke-opacity:1"
         d="m 135.09266,189.49205 v 17.25391 c 3.76094,17.78261 22.13197,10.44784 27.72258,0 v -17.35085 27.43179"
         id="path9"
         sodipodi:nodetypes="ccccc" /><path
         style="fill:none;fill-opacity:1;fill-rule:evenodd;stroke:#0057c9;stroke-width:8.59999;stroke-linecap:round;stroke-linejoin:round;stroke-dasharray:none;stroke-opacity:1"
         d="m 182.00779,189.68591 v 27.23793 -18.22324 c 5.14862,-5.10149 5.94082,-10.22952 17.06006,-9.11161"
         id="path10"
         sodipodi:nodetypes="cccc" /><path
         style="fill:none;fill-opacity:1;fill-rule:evenodd;stroke:#0057c9;stroke-width:8.59999;stroke-linecap:round;stroke-linejoin:round;stroke-dasharray:none;stroke-opacity:1"
         d="m 211.66904,203.06255 h 28.49803 c 0.008,-5.6262 -3.66126,-14.40449 -14.73369,-14.73369 -12.67086,0.38652 -16.66471,11.09946 -12.7798,22.13529 5.58763,10.6756 21.36269,6.79912 25.57484,5.10264"
         id="path11"
         sodipodi:nodetypes="ccccc" /><path
         style="fill:none;fill-opacity:1;fill-rule:evenodd;stroke:#f5f5f5;stroke-width:8.59999;stroke-linecap:round;stroke-linejoin:round;stroke-dasharray:none;stroke-opacity:1"
         d="m 298.80505,178.19446 c -13.52593,-7.17603 -24.82917,-2.4899 -27.48509,6.16872 -0.76006,8.01329 6.96899,9.27388 13.98243,11.1037 14.98123,2.65163 16.91902,7.50337 16.92974,12.68015 -0.95552,9.48579 -19.69943,13.08198 -30.50092,4.86644"
         id="path12"
         sodipodi:nodetypes="ccccc" /><path
         style="fill:none;fill-opacity:1;fill-rule:evenodd;stroke:#f5f5f5;stroke-width:8.59999;stroke-linecap:round;stroke-linejoin:round;stroke-dasharray:none;stroke-opacity:1"
         d="m 338.8332,190.94315 c -14.31336,-5.13096 -23.75805,3.39235 -23.64678,12.33745 1.74365,13.89477 14.41194,17.58645 23.8524,12.20035"
         id="path13"
         sodipodi:nodetypes="ccc" /><path
         style="fill:none;fill-opacity:1;fill-rule:evenodd;stroke:#f5f5f5;stroke-width:8.59999;stroke-linecap:round;stroke-linejoin:round;stroke-dasharray:none;stroke-opacity:1"
         d="m 381.9457,206.50204 c -0.17531,-7.30177 -4.73199,-16.24945 -15.01054,-17.95783 -8.33439,-0.78824 -17.34946,7.14828 -13.98243,19.67136 5.61726,10.32981 19.08382,13.6469 28.92443,-0.75396 v -17.68366 27.00529"
         id="path14"
         sodipodi:nodetypes="cccccc" /><path
         style="fill:none;fill-opacity:1;fill-rule:evenodd;stroke:#f5f5f5;stroke-width:8.59999;stroke-linecap:round;stroke-linejoin:round;stroke-dasharray:none;stroke-opacity:1"
         d="m 398.73834,189.91503 v 26.73113 -19.32866 c 2.43842,-3.08674 4.36553,-8.75366 15.4218,-8.91038 9.20793,1.53063 9.39493,6.3987 10.34976,10.34975 v 18.16346"
         id="path15"
         sodipodi:nodetypes="cccccc" /></g></g></svg>
